<?xml version="1.0" encoding="utf-8"?>
<!-- Generator: Adobe Illustrator 20.1.0, SVG Export Plug-In . SVG Version: 6.00 Build 0)  -->
<svg version="1.1" id="レイヤー_1" xmlns="http://www.w3.org/2000/svg" xmlns:xlink="http://www.w3.org/1999/xlink" x="0px"
	 y="0px" viewBox="0 0 600 2100" style="enable-background:new 0 0 600 2100;" xml:space="preserve">
<style type="text/css">
	.st0{writing-mode:tb;}
	.st1{fill: rgba(0, 0, 0, 0);}
	.st2{font-family:'Helvetica Neue'; font-weight: 200;}
	.st3{font-size:42.1461px;glyph-orientation-vertical:1;}
	.st4{letter-spacing:1;}
	.st5{font-family:'Helvetica Neue'; font-weight: 100;}
	.st6{font-size:140.487px;}
	.st7{letter-spacing:-8;}
	.st8{letter-spacing:-14;}
	.st9{letter-spacing:16;}
	.st10{font-family:'Helvetica';}
	.st11{letter-spacing:35;}
	.st12{font-family:'RodinPro-L-83pv-RKSJ-H';}
	.st13{font-size:42.1461px;glyph-orientation-vertical:0;writing-mode:tb;}
	.st14{letter-spacing:-21;}
	.st15{letter-spacing:5;}
	.st16{letter-spacing:-15;}
	.st17{font-size:42.1461px;glyph-orientation-vertical:1;writing-mode:tb;}
	.st18{font-size:84.2922px;glyph-orientation-vertical:0;}
	.st19{letter-spacing:10;}
</style>
<g>
	<text transform="matrix(1 0 0 1 557.9473 0.7837)" class="st0"><tspan x="0" y="0" class="st1 st12 st18">多摩美術大</tspan><tspan x="0" y="421.46" class="st1 st12 st18 st19">学</tspan><tspan x="0" y="516.29" class="st1 st12 st18">上野毛デザイン展</tspan></text>
	<text transform="matrix(1.531428e-15 1 -1 1.531428e-15 373.4072 1.1162)" class="st1 st5 st6">20</text>
	<text transform="matrix(1.531428e-15 1 -1 1.531428e-15 373.4072 157.3379)" class="st1 st5 st6 st7">1</text>
	<text transform="matrix(1.531428e-15 1 -1 1.531428e-15 373.4072 227.0195)" class="st1 st5 st6 st8">7</text>
	<text transform="matrix(1.531428e-15 1 -0.5 7.657138e-16 373.4072 291.0815)" class="st1 st5 st6">.</text>
	<text transform="matrix(1.531428e-15 1 -1 1.531428e-15 373.4072 330.1367)" class="st1 st5 st6">02</text>
	<text transform="matrix(1.531428e-15 1 -0.5 7.657138e-16 373.4072 486.3584)" class="st1 st5 st6">.</text>
	<text transform="matrix(1.531428e-15 1 -1 1.531428e-15 373.4072 525.4136)" class="st1 st5 st6">03</text>
	<text transform="matrix(7.657138e-16 0.5 -0.5 7.657138e-16 401.293 699.1948)" class="st1 st2 st6 st9">[</text>
	<text transform="matrix(7.657138e-16 0.5 -0.5 7.657138e-16 395.6738 724.9048)" class="st1 st2 st6">FRI</text>
	<text transform="matrix(7.657138e-16 0.5 -0.5 7.657138e-16 401.293 825.9839)" class="st1 st2 st6">]</text>
	<text transform="matrix(3.062855e-15 2 -0.2 3.062855e-16 413.4834 913.1558)" class="st1 st10 st6 st11">─</text>
	<text transform="matrix(1.531428e-15 1 -1 1.531428e-15 373.4072 1264.3735)" class="st1 st5 st6">02</text>
	<text transform="matrix(1.531428e-15 1 -0.5 7.657138e-16 373.4072 1420.5942)" class="st1 st5 st6">.</text>
	<text transform="matrix(1.531428e-15 1 -1 1.531428e-15 373.4072 1459.6499)" class="st1 st5 st6">05</text>
	<text transform="matrix(7.657138e-16 0.5 -0.5 7.657138e-16 401.293 1633.4312)" class="st1 st2 st6 st9">[</text>
	<text transform="matrix(7.657138e-16 0.5 -0.5 7.657138e-16 395.6738 1659.1411)" class="st1 st2 st6">SUN</text>
	<text transform="matrix(7.657138e-16 0.5 -0.5 7.657138e-16 401.293 1807.0024)" class="st1 st2 st6 st9">]</text>
	<text transform="matrix(1 0 0 1 294.4316 0.7837)" class="st1 st12 st13">多摩美術大学造形表現学部デザイン学科卒業制作／大学院修士課程コミュニケーションデザイン領域修了制作展</text>
	<text transform="matrix(1 0 0 1 231.2124 -20.2896)" class="st1 st12 st13">［会期］二〇一七年二月三</text>
	<text transform="matrix(1 0 0 1 231.2124 485.4624)" class="st1 st12 st13 st14">日</text>
	<text transform="matrix(1 0 0 1 231.2124 506.5356)" class="st1 st12 st13">（金</text>
	<text transform="matrix(1 0 0 1 231.2124 590.8286)" class="st1 st12 st13 st14">）</text>
	<text transform="matrix(1 0 0 2 231.2124 622.439)" class="st1 st12 st13 st15">─</text>
	<text transform="matrix(1 0 0 1 231.2124 717.2681)" class="st1 st12 st13">二月五</text>
	<text transform="matrix(1 0 0 1 231.2124 843.7075)" class="st1 st12 st13 st14">日</text>
	<text transform="matrix(1 0 0 1 231.2124 864.7808)" class="st1 st12 st13">（日</text>
	<text transform="matrix(1 0 0 1 231.2124 949.0737)" class="st1 st12 st13 st14">）　</text>
	<text transform="matrix(1 0 0 1 231.2124 991.2202)" class="st1 st12 st13">［時間］午前十一時</text>
	<text transform="matrix(1 0 0 2 231.2124 1381.0757)" class="st1 st12 st13 st15">─</text>
	<text transform="matrix(1 0 0 1 231.2124 1475.9048)" class="st1 st12 st13">午後七</text>
	<text transform="matrix(1 0 0 1 231.2124 1602.3442)" class="st1 st12 st13 st16">時</text>
	<text transform="matrix(1 0 0 1 231.2124 1628.686)" class="st1 st12 st13">（最終日午後五時まで</text>
	<text transform="matrix(1 0 0 1 231.2124 2050.1509)" class="st1 st12 st13 st14">）</text>
	<text transform="matrix(1 0 0 1 167.9937 -20.2896)" class="st1 st12 st13">［場所］</text>
	<text transform="matrix(1 0 0 1 166.6026 148.2944)" class="st1 st2 st17 st4">BankART Studio NYK</text>
	<text transform="matrix(1 0 0 1 167.9937 554.7466)" class="st1 st12 st13">神奈川県横浜市中区海岸通三丁目九</text>
	<text transform="matrix(1 0 0 2 167.9937 1239.6265)" class="st1 st12 st13 st15">─</text>
	<text transform="matrix(1 0 0 1 167.9937 1334.4556)" class="st1 st12 st13">みなとみらい</text>
	<text transform="matrix(1 0 0 1 167.9937 1587.3345)" class="st1 st12 st13 st16">線</text>
	<text transform="matrix(1 0 0 1 167.9937 1613.6763)" class="st1 st12 st13">「馬車道駅</text>
	<text transform="matrix(1 0 0 1 167.9937 1824.4087)" class="st1 st12 st13 st16">」</text>
	<text transform="matrix(1 0 0 1 167.9937 1850.7505)" class="st1 st12 st13">より徒歩五分</text>
	<text transform="matrix(1 0 0 1 79.5962 0.7847)" class="st0"><tspan x="0" y="0" class="st1 st2 st3 st4">TAMA ART UNIVERSITY KAMINOGE DESIGN EXHIBITION 2017 FEBRUARY 3 TO 5</tspan><tspan x="-56.19" y="0" class="st1 st2 st3 st4">BankART Studio NYK 3-9 Kaigandori, Naka-ku Yokohama-shi, Kanagawa, 231-0002, Japan</tspan></text>
</g>
</svg>
