<?xml version="1.0" encoding="utf-8"?>
<!-- Generator: Adobe Illustrator 23.0.4, SVG Export Plug-In . SVG Version: 6.00 Build 0)  -->
<svg version="1.1" id="レイヤー_1" xmlns="http://www.w3.org/2000/svg" xmlns:xlink="http://www.w3.org/1999/xlink" x="0px"
	 y="0px" viewBox="0 0 128 128" style="enable-background:new 0 0 128 128;" xml:space="preserve">
<g>
	<rect x="29.8626" y="68.2667" width="68.2667" height="10.6667"/>
	<polygon points="29.8627,85.3333 29.8627,96 57.596,96 57.596,113.0667 70.396,113.0667 70.396,96 98.1293,96 98.1293,85.3333 	"/>
	<path d="M63.996,119.4667C33.3626,119.4667,8.5293,94.6334,8.5293,64c0-2.3365,0.1447-4.6393,0.4252-6.8999l50.7748-12.2498
		v19.2348l66.2747-15.9893C118.9327,20.4436,93.8519,0,63.996,0c-35.3462,0-64,28.6538-64,64s28.6538,64,64,64
		c27.866,0,51.5722-17.8092,60.3581-42.6667h-9.1426C106.8526,105.3777,87.0697,119.4667,63.996,119.4667z M63.996,8.5333
		c22.8134,0,42.4098,13.7729,50.9282,33.4574L68.2626,53.2482V34.0134l-57.3449,13.835
		C17.8332,25.0931,38.9807,8.5333,63.996,8.5333z"/>
</g>
</svg>
